<svg xmlns="http://www.w3.org/2000/svg"  viewBox="0 0 48 48" width="512px" height="512px"><linearGradient id="SJN9rSRRgs2L3IqlhjdEAa" x1="24" x2="24" y1="654.016" y2="645.747" gradientTransform="matrix(1 0 0 -1 0 660.724)" gradientUnits="userSpaceOnUse"><stop offset="0" stop-color="#eba600"/><stop offset="1" stop-color="#c28200"/></linearGradient><path fill="url(#SJN9rSRRgs2L3IqlhjdEAa)" d="M24.414,10.414l-2.536-2.536C21.316,7.316,20.553,7,19.757,7H5C3.895,7,3,7.895,3,9v30 c0,1.105,0.895,2,2,2h38c1.105,0,2-0.895,2-2V13c0-1.105-0.895-2-2-2H25.828C25.298,11,24.789,10.789,24.414,10.414z"/><linearGradient id="SJN9rSRRgs2L3IqlhjdEAb" x1="24" x2="24" y1="649.87" y2="619.741" gradientTransform="matrix(1 0 0 -1 0 660.724)" gradientUnits="userSpaceOnUse"><stop offset="0" stop-color="#ffd869"/><stop offset="1" stop-color="#fec52b"/></linearGradient><path fill="url(#SJN9rSRRgs2L3IqlhjdEAb)" d="M21.586,14.414l3.268-3.268C24.947,11.053,25.074,11,25.207,11H43c1.105,0,2,0.895,2,2v26 c0,1.105-0.895,2-2,2H5c-1.105,0-2-0.895-2-2V15.5C3,15.224,3.224,15,3.5,15h16.672C20.702,15,21.211,14.789,21.586,14.414z"/><path d="M17,38.182c-1.103,0-2-0.897-2-2v-0.571c0-2.411,2.175-4.626,5.398-5.608 c-0.504-0.479-1.05-1.145-1.283-1.939c-0.479-0.203-0.833-0.646-0.919-1.185l-0.171-1.063c-0.08-0.483,0.037-0.978,0.313-1.371 C18.131,23.589,18,22.722,18,22.182c0-2.792,1.659-3.728,2.765-4.041c0.538-0.628,1.306-0.959,2.235-0.959h6v1 c0,0.31-0.03,0.608-0.091,0.892C29.624,19.911,30,20.979,30,22.182c0,0.526-0.135,1.429-0.334,2.266 c0.273,0.391,0.388,0.884,0.309,1.368l-0.172,1.064c-0.086,0.537-0.438,0.979-0.918,1.183c-0.233,0.794-0.779,1.461-1.283,1.939 C30.825,30.985,33,33.2,33,35.611v0.571c0,1.103-0.897,2-2,2H17z" opacity=".05"/><path d="M17,37.682c-0.827,0-1.5-0.673-1.5-1.5v-0.571 c0-2.411,2.486-4.623,5.975-5.371c-0.858-0.604-1.756-1.553-1.94-2.572c-0.429-0.072-0.771-0.415-0.844-0.868l-0.172-1.063 c-0.071-0.435,0.074-0.87,0.367-1.169c-0.232-0.885-0.386-1.828-0.386-2.386c0-2.546,1.512-3.349,2.551-3.6 c0.443-0.59,1.113-0.9,1.949-0.9h5.5v0.5c0,0.365-0.047,0.711-0.141,1.03c0.748,0.771,1.141,1.79,1.141,2.97 c0,0.471-0.132,1.43-0.38,2.389c0.292,0.298,0.433,0.727,0.361,1.165L29.309,26.8c-0.072,0.452-0.415,0.795-0.844,0.867 c-0.185,1.02-1.082,1.968-1.94,2.572c3.488,0.748,5.975,2.96,5.975,5.371v0.572c0,0.827-0.673,1.5-1.5,1.5H17z" opacity=".07"/><linearGradient id="SJN9rSRRgs2L3IqlhjdEAc" x1="23.406" x2="24.15" y1="-1107.476" y2="-1114.543" gradientTransform="matrix(1 0 0 -1 0 -1077.276)" gradientUnits="userSpaceOnUse"><stop offset="0" stop-color="#0370c8"/><stop offset=".484" stop-color="#036fc5"/><stop offset=".775" stop-color="#036abd"/><stop offset="1" stop-color="#0362b0"/></linearGradient><path fill="url(#SJN9rSRRgs2L3IqlhjdEAc)" d="M24,30.468c-4.418,0-8,2.46-8,5.143v0.571c0,0.552,0.448,1,1,1h14c0.552,0,1-0.448,1-1 v-0.571C32,32.928,28.418,30.468,24,30.468z"/><path fill="#d6a121" d="M26,31.582c0,0.759-1.132,1.6-2,1.6s-2-0.841-2-1.6c0-1.055,0-2.814,0-2.814h4 C26,28.768,26,30.527,26,31.582z"/><linearGradient id="SJN9rSRRgs2L3IqlhjdEAd" x1="27.94" x2="28.97" y1="-1103.207" y2="-1103.207" gradientTransform="matrix(1 0 0 -1 0 -1077.276)" gradientUnits="userSpaceOnUse"><stop offset="0" stop-color="#c48f0c"/><stop offset=".251" stop-color="#d19b16"/><stop offset=".619" stop-color="#dca51f"/><stop offset="1" stop-color="#e0a922"/></linearGradient><path fill="url(#SJN9rSRRgs2L3IqlhjdEAd)" d="M28.208,24.682h-0.264v2.5h0.352c0.257,0,0.477-0.195,0.52-0.462l0.172-1.064 C29.071,25.146,28.698,24.682,28.208,24.682z"/><linearGradient id="SJN9rSRRgs2L3IqlhjdEAe" x1="20.072" x2="19.027" y1="-1103.207" y2="-1103.207" gradientTransform="matrix(1 0 0 -1 0 -1077.276)" gradientUnits="userSpaceOnUse"><stop offset="0" stop-color="#c48f0c"/><stop offset=".251" stop-color="#d19b16"/><stop offset=".619" stop-color="#dca51f"/><stop offset="1" stop-color="#e0a922"/></linearGradient><path fill="url(#SJN9rSRRgs2L3IqlhjdEAe)" d="M19.792,24.682h0.264v2.5h-0.352c-0.257,0-0.477-0.195-0.52-0.462l-0.172-1.064 C18.929,25.146,19.302,24.682,19.792,24.682z"/><radialGradient id="SJN9rSRRgs2L3IqlhjdEAf" cx="535.329" cy="-1528.6" r="6.112" gradientTransform="matrix(.7837 0 0 -.7837 -395.537 -1172.748)" gradientUnits="userSpaceOnUse"><stop offset="0" stop-color="#ffcf54"/><stop offset=".261" stop-color="#fdcb4d"/><stop offset=".639" stop-color="#f7c13a"/><stop offset="1" stop-color="#f0b421"/></radialGradient><path fill="url(#SJN9rSRRgs2L3IqlhjdEAf)" d="M24,19.749c-1.974,0-4,0.3-4,4.567c0,0.342,0,2.612,0,2.977c0,1.523,2.4,3.39,4,3.39 s4-1.867,4-3.39c0-0.365,0-2.635,0-2.977C28,20.049,25.974,19.749,24,19.749z"/><radialGradient id="SJN9rSRRgs2L3IqlhjdEAg" cx="244.507" cy="-1312.035" r="15.002" gradientTransform="matrix(.8816 0 0 -.8816 -195.836 -1137.89)" gradientUnits="userSpaceOnUse"><stop offset="0" stop-color="#c26715"/><stop offset=".508" stop-color="#b85515"/><stop offset="1" stop-color="#ad3f16"/></radialGradient><path fill="url(#SJN9rSRRgs2L3IqlhjdEAg)" d="M24,18.182c-2.177,0-2.5,0.818-2.5,0.818c-0.885,0.131-2.5,0.681-2.5,3.182 c0,0.827,0.407,2.89,1,4c0.273-3.273,0.624-5,1.5-5c0.633,0,1.136-1,2.5-1c1.151,0,1.437,1,2.5,1c1.5,0,1.5,4.484,1.5,5 c0.644-1.153,1-3.278,1-4C29,19.659,27.105,18.182,24,18.182z"/><radialGradient id="SJN9rSRRgs2L3IqlhjdEAh" cx="334.821" cy="-1313.245" r="19.272" gradientTransform="matrix(.8431 0 0 -.8816 -259.209 -1137.89)" gradientUnits="userSpaceOnUse"><stop offset="0" stop-color="#c26715"/><stop offset=".508" stop-color="#b85515"/><stop offset="1" stop-color="#ad3f16"/></radialGradient><path fill="url(#SJN9rSRRgs2L3IqlhjdEAh)" d="M23,18.182c-1.996,0-2,2-2,2c-0.024,0.676,0.469,1,3,1c1.528,0,4-0.454,4-3 C28,18.182,26.464,18.182,23,18.182z"/></svg>