<svg xmlns="http://www.w3.org/2000/svg"  viewBox="0 0 48 48" width="512px" height="512px" baseProfile="basic"><linearGradient id="WCstrRwYKmiN1w1iTFYkVa" x1="24" x2="24" y1="-446.708" y2="-454.977" gradientTransform="matrix(1 0 0 -1 0 -440)" gradientUnits="userSpaceOnUse"><stop offset="0" stop-color="#eba600"/><stop offset="1" stop-color="#c28200"/></linearGradient><path fill="url(#WCstrRwYKmiN1w1iTFYkVa)" d="M20.414,10.414l-2.242-2.242C17.421,7.421,16.404,7,15.343,7H5C3.895,7,3,7.895,3,9v29 c0,1.657,1.343,3,3,3h36c1.657,0,3-1.343,3-3V13c0-1.105-0.895-2-2-2H21.829C21.298,11,20.789,10.789,20.414,10.414z"/><linearGradient id="WCstrRwYKmiN1w1iTFYkVb" x1="24" x2="24" y1="41.141" y2="12.016" gradientUnits="userSpaceOnUse"><stop offset="0" stop-color="#ffd869"/><stop offset="1" stop-color="#fec52b"/></linearGradient><path fill="url(#WCstrRwYKmiN1w1iTFYkVb)" d="M45,15v23c0,1.66-1.34,3-3,3H6 c-1.66,0-3-1.34-3-3V19c0-1.66,1.34-3,3-3h10.17c0.53,0,1.04-0.21,1.42-0.59l2.82-2.82C20.79,12.21,21.3,12,21.83,12H42 C43.66,12,45,13.34,45,15z"/><path fill="#0b0b0a" d="M36,36.608V41H12v-4.392C12,34.074,13.964,32,16.364,32h15.273 C34.036,32,36,34.074,36,36.608z" opacity=".05"/><path fill="#0b0b0a" d="M37,36.184V41H11v-4.816C11,33.333,13.127,31,15.727,31h16.545 C34.873,31,37,33.333,37,36.184z" opacity=".05"/><linearGradient id="WCstrRwYKmiN1w1iTFYkVc" x1="19.753" x2="29.354" y1="42.282" y2="32.958" gradientUnits="userSpaceOnUse"><stop offset="0" stop-color="#0176d1"/><stop offset="1" stop-color="#016dc2"/></linearGradient><path fill="url(#WCstrRwYKmiN1w1iTFYkVc)" d="M35,37v4H13v-4c0-2.2,1.8-4,4-4h14 C33.2,33,35,34.8,35,37z"/><linearGradient id="WCstrRwYKmiN1w1iTFYkVd" x1="38.665" x2="27.701" y1="37.5" y2="37.5" gradientUnits="userSpaceOnUse"><stop offset="0" stop-color="#9c55d4"/><stop offset=".002" stop-color="#9c55d4"/><stop offset=".003" stop-color="#9c55d4"/><stop offset=".111" stop-color="#9753d1"/><stop offset=".242" stop-color="#884ec8"/><stop offset=".383" stop-color="#7046ba"/><stop offset=".521" stop-color="#513ca7"/><stop offset=".672" stop-color="#3c359a"/><stop offset=".756" stop-color="#2e3192"/><stop offset="1" stop-color="#2e3192"/></linearGradient><rect width="15" height="1" x="17" y="37" fill="url(#WCstrRwYKmiN1w1iTFYkVd)"/></svg>